:FULLY-SPECIFIED
:FORCE-ALL-JOINTS-BE-3DOF
:DEGREES
306
root 9.08009 15.4232 -23.8067 13.0936 59.6 16.9807
lfemur -16.2013 18.6793 -18.062
ltibia 52.506 0 0
lfoot -16.8914 -26.6644 0
ltoes 58.5399 0 0
rfemur -53.5196 -19.7468 36.4613
rtibia 57.0622 0 0
rfoot 16.2805 14.4637 0
rtoes 5.94673 0 0
lowerback 9.50845 -3.30728 -8.547
upperback 5.08082 -4.92427 -4.08876
thorax 0.370287 -2.49463 0.942762
lowerneck -5.40934 -10.4957 -2.57913
upperneck -2.18706 -13.91 10.579
head 1.25276 -6.83594 3.36791
lclavicle -3.9294e-14 -6.92801e-15 0
lhumerus -42.153 -41.9633 99.0359
lradius 59.3398 0 0
lwrist 21.512 0 0
lhand 13.9117 11.7455 0
lfingers 7.12502 0 0
lthumb 38.8258 37.3109 0
rclavicle -3.9294e-14 -6.92801e-15 0
rhumerus -39.5728 68.6536 -74.4636
rradius 80.8942 0 0
rwrist 5.31899 0 0
rhand 2.457 -6.23317 0
rfingers 7.12502 0 0
rthumb 27.9262 -754.011 0
307
root 9.03556 15.4426 -23.7909 12.3034 58.1706 15.8217
lfemur -16.3346 19.0629 -17.9456
ltibia 52.1156 0 0
lfoot -17.3099 -25.9107 0
ltoes 58.5917 0 0
rfemur -55.0266 -21.1301 37.4161
rtibia 57.7782 0 0
rfoot 17.2081 17.352 0
rtoes -0.30275 0 0
lowerback 9.73871 -3.19862 -8.51413
upperback 5.12525 -4.80127 -4.11015
thorax 0.275237 -2.43 0.909921
lowerneck -5.55651 -10.361 -2.27002
upperneck -2.6718 -13.7054 10.7194
head 1.09146 -6.74108 3.37883
lclavicle -3.33958e-14 -1.43125e-14 0
lhumerus -42.4065 -42.5304 99.1545
lradius 59.1219 0 0
lwrist 21.3914 0 0
lhand 13.5646 11.4558 0
lfingers 7.12502 0 0
lthumb 38.4988 37.1176 0
rclavicle -3.33958e-14 -1.43125e-14 0
rhumerus -33.9357 70.9667 -68.9449
rradius 81.2445 0 0
rwrist 3.93263 0 0
rhand 5.47149 -5.7173 0
rfingers 7.12502 0 0
rthumb 30.8196 -753.153 0
308
root 9.00205 15.4631 -23.7601 12.1513 56.9691 15.2778
lfemur -16.4556 19.4425 -17.9132
ltibia 51.6921 0 0
lfoot -18.0791 -24.7527 0
ltoes 58.0235 0 0
rfemur -56.0488 -21.2648 37.0512
rtibia 58.2909 0 0
rfoot 15.5957 17.2344 0
rtoes -3.76555 0 0
lowerback 9.76503 -3.04313 -8.3306
upperback 5.08185 -4.59165 -4.10844
thorax 0.186105 -2.32095 0.79773
lowerneck -5.53842 -10.3709 -2.03316
upperneck -3.01266 -13.6995 10.7313
head 0.960662 -6.75254 3.35538
lclavicle -3.45223e-14 -8.93058e-15 0
lhumerus -42.9442 -43.3693 99.8163
lradius 59.0255 0 0
lwrist 20.9348 0 0
lhand 13.7953 11.2542 0
lfingers 7.12502 0 0
lthumb 38.7162 36.8531 0
rclavicle -3.45223e-14 -8.93058e-15 0
rhumerus -29.5817 67.1394 -65.8493
rradius 80.0429 0 0
rwrist 1.66364 0 0
rhand 6.75797 -5.9377 0
rfingers 7.12502 0 0
rthumb 32.0402 -753.091 0
309
root 8.96617 15.4851 -23.7272 11.9884 55.6827 14.6955
lfemur -16.5851 19.8488 -17.8785
ltibia 51.2387 0 0
lfoot -18.9026 -23.5129 0
ltoes 57.4152 0 0
rfemur -57.1432 -21.409 36.6605
rtibia 58.8398 0 0
rfoot 13.8695 17.1085 0
rtoes -7.47278 0 0
lowerback 9.79322 -2.87666 -8.13411
upperback 5.03538 -4.36722 -4.1066
thorax 0.0906821 -2.20421 0.677619
lowerneck -5.51905 -10.3815 -1.77957
upperneck -3.37759 -13.6932 10.7441
head 0.820631 -6.7648 3.33028
lclavicle -3.57282e-14 -3.16877e-15 0
lhumerus -43.5198 -44.2675 100.525
lradius 58.9223 0 0
lwrist 20.4459 0 0
lhand 14.0423 11.0384 0
lfingers 7.12502 0 0
lthumb 38.949 36.5699 0
rclavicle -3.57282e-14 -3.16877e-15 0
rhumerus -24.9203 63.042 -62.5353
rradius 78.7564 0 0
rwrist -0.765504 0 0
rhand 8.13525 -6.17365 0
rfingers 7.12502 0 0
rthumb 33.347 -753.024 0
310
root 8.92911 15.5078 -23.6931 11.8201 54.354 14.094
lfemur -16.7189 20.2686 -17.8426
ltibia 50.7704 0 0
lfoot -19.7532 -22.2322 0
ltoes 56.7869 0 0
rfemur -58.2736 -21.558 36.257
rtibia 59.4068 0 0
rfoot 12.0864 16.9785 0
rtoes -11.3022 0 0
lowerback 9.82233 -2.70471 -7.93114
upperback 4.98738 -4.1354 -4.10471
thorax -0.007887 -2.08361 0.553549
lowerneck -5.49905 -10.3925 -1.51763
upperneck -3.75455 -13.6867 10.7573
head 0.675983 -6.77747 3.30434
lclavicle -3.6974e-14 2.783e-15 0
lhumerus -44.1144 -45.1953 101.257
lradius 58.8157 0 0
lwrist 19.9409 0 0
lhand 14.2975 10.8155 0
lfingers 7.12502 0 0
lthumb 39.1895 36.2774 0
rclavicle -3.6974e-14 2.783e-15 0
rhumerus -20.1053 58.8094 -59.112
rradius 77.4275 0 0
rwrist -3.27474 0 0
rhand 9.55795 -6.41739 0
rfingers 7.12502 0 0
rthumb 34.6969 -752.956 0
311
root 8.89205 15.5305 -23.6591 11.6519 53.0252 13.4926
lfemur -16.8528 20.6884 -17.8068
ltibia 50.3021 0 0
lfoot -20.6039 -20.9516 0
ltoes 56.1585 0 0
rfemur -59.4041 -21.7069 35.8535
rtibia 59.9739 0 0
rfoot 10.3033 16.8485 0
rtoes -15.1317 0 0
lowerback 9.85144 -2.53275 -7.72818
upperback 4.93938 -3.90359 -4.10282
thorax -0.106456 -1.96302 0.429479
lowerneck -5.47905 -10.4034 -1.25568
upperneck -4.1315 -13.6801 10.7706
head 0.531336 -6.79015 3.27841
lclavicle -3.82197e-14 8.73477e-15 0
lhumerus -44.7089 -46.123 101.989
lradius 58.7091 0 0
lwrist 19.4359 0 0
lhand 14.5527 10.5925 0
lfingers 7.12502 0 0
lthumb 39.43 35.9848 0
rclavicle -3.82197e-14 8.73477e-15 0
rhumerus -15.2902 54.5769 -55.6886
rradius 76.0986 0 0
rwrist -5.78397 0 0
rhand 10.9806 -6.66113 0
rfingers 7.12502 0 0
rthumb 36.0468 -752.887 0
312
root 8.85617 15.5525 -23.6262 11.489 51.7388 12.9103
lfemur -16.9823 21.0947 -17.7721
ltibia 49.8487 0 0
lfoot -21.4274 -19.7118 0
ltoes 55.5502 0 0
rfemur -60.4985 -21.8511 35.4628
rtibia 60.5228 0 0
rfoot 8.57708 16.7226 0
rtoes -18.8389 0 0
lowerback 9.87963 -2.36628 -7.53169
upperback 4.89291 -3.67916 -4.10098
thorax -0.201879 -1.84628 0.309368
lowerneck -5.45968 -10.414 -1.0021
upperneck -4.49643 -13.6738 10.7834
head 0.391305 -6.80241 3.25331
lclavicle -3.94256e-14 1.44966e-14 0
lhumerus -45.2845 -47.0212 102.697
lradius 58.6059 0 0
lwrist 18.947 0 0
lhand 14.7997 10.3767 0
lfingers 7.12502 0 0
lthumb 39.6628 35.7016 0
rclavicle -3.94256e-14 1.44966e-14 0
rhumerus -10.6289 50.4795 -52.3746
rradius 74.8121 0 0
rwrist -8.21311 0 0
rhand 12.3579 -6.89708 0
rfingers 7.12502 0 0
rthumb 37.3536 -752.82 0
313
root 8.82266 15.573 -23.5954 11.3369 50.5373 12.3664
lfemur -17.1033 21.4743 -17.7397
ltibia 49.4252 0 0
lfoot -22.1966 -18.5538 0
ltoes 54.982 0 0
rfemur -61.5207 -21.9858 35.0979
rtibia 61.0355 0 0
rfoot 6.96469 16.605 0
rtoes -22.3017 0 0
lowerback 9.90595 -2.21079 -7.34816
upperback 4.84951 -3.46954 -4.09927
thorax -0.291011 -1.73723 0.197177
lowerneck -5.44159 -10.4239 -0.765233
upperneck -4.83729 -13.6679 10.7953
head 0.260507 -6.81387 3.22986
lclavicle -4.05521e-14 1.98785e-14 0
lhumerus -45.8222 -47.8601 103.359
lradius 58.5095 0 0
lwrist 18.4904 0 0
lhand 15.0304 10.1751 0
lfingers 7.12502 0 0
lthumb 39.8802 35.4371 0
rclavicle -4.05521e-14 1.98785e-14 0
rhumerus -6.27486 46.6522 -49.279
rradius 73.6105 0 0
rwrist -10.4821 0 0
rhand 13.6444 -7.11748 0
rfingers 7.12502 0 0
rthumb 38.5742 -752.758 0
314
root 8.80043 15.5915 -23.5399 11.1978 49.8965 12.062
lfemur -16.6887 21.2762 -17.4092
ltibia 48.6938 0 0
lfoot -21.9061 -18.4683 0
ltoes 55.7106 0 0
rfemur -61.1225 -21.2775 32.8232
rtibia 60.853 0 0
rfoot 6.79632 14.5276 0
rtoes -19.4702 0 0
lowerback 9.88029 -2.00759 -7.02898
upperback 4.81709 -3.17724 -4.03812
thorax -0.336778 -1.58819 0.0566821
lowerneck -5.2386 -10.6374 -0.338218
upperneck -5.13619 -13.9401 10.6041
head 0.0959128 -6.97356 3.12032
lclavicle -2.84271e-14 1.7125e-14 0
lhumerus -46.5794 -48.8791 104.483
lradius 58.6487 0 0
lwrist 18.5229 0 0
lhand 15.0277 10.2409 0
lfingers 7.12502 0 0
lthumb 39.8776 35.5037 0
rclavicle -2.84271e-14 1.7125e-14 0
rhumerus -5.97416 40.632 -50.9933
rradius 73.572 0 0
rwrist -13.074 0 0
rhand 6.90157 -9.98878 0
rfingers 7.12502 0 0
rthumb 32.1029 -756.31 0
